<svg width="303" height="131" viewBox="0 0 303 131" fill="none" xmlns="http://www.w3.org/2000/svg">
<path d="M302.559 2.74439L275.724 128.977C275.62 129.47 275.353 129.914 274.965 130.236C274.577 130.558 274.092 130.739 273.588 130.75H170.923C170.594 130.743 170.271 130.664 169.976 130.517C169.681 130.371 169.422 130.161 169.218 129.903C169.014 129.644 168.87 129.344 168.795 129.024C168.721 128.703 168.718 128.37 168.787 128.048L190.978 23.6319C191.045 23.3097 191.042 22.9768 190.968 22.656C190.895 22.3352 190.752 22.0342 190.551 21.7738L176.284 3.62005C176.026 3.28923 175.867 2.89283 175.823 2.47585C175.779 2.05888 175.854 1.63804 176.037 1.26108C176.22 0.884107 176.506 0.566123 176.861 0.343212C177.216 0.120301 177.627 0.00136499 178.046 -4.57764e-05H300.424C300.757 0.00734513 301.084 0.0888017 301.381 0.238374C301.679 0.387946 301.939 0.601903 302.144 0.864698C302.348 1.12749 302.492 1.43253 302.563 1.75766C302.635 2.0828 302.634 2.41986 302.559 2.74439Z" fill="#EEB11A"/>
<path d="M229.613 63.8158L216.596 34.8232C216.539 34.6949 216.515 34.5545 216.526 34.4147C216.537 34.2749 216.583 34.1401 216.659 34.0224C216.736 33.9047 216.84 33.8079 216.963 33.7408C217.087 33.6736 217.225 33.6382 217.365 33.6378H229.987C230.151 33.6378 230.312 33.6865 230.449 33.7777C230.586 33.869 230.693 33.9986 230.756 34.1504L238.85 53.1264C238.907 53.2603 238.998 53.3773 239.113 53.4659C239.228 53.5545 239.365 53.6117 239.508 53.6322C239.652 53.6526 239.799 53.6354 239.935 53.5824C240.07 53.5293 240.19 53.4421 240.281 53.3293L256.299 33.9475C256.379 33.8521 256.479 33.775 256.591 33.7216C256.704 33.6681 256.826 33.6395 256.951 33.6378H267.768C267.929 33.6385 268.086 33.685 268.221 33.7718C268.356 33.8586 268.463 33.9822 268.531 34.1279C268.598 34.2737 268.622 34.4356 268.601 34.5947C268.579 34.7538 268.513 34.9035 268.409 35.0261L243.965 63.6129C243.865 63.7349 243.8 63.882 243.778 64.0382C243.755 64.1945 243.776 64.3539 243.837 64.4993L257.837 96.0228C257.894 96.151 257.918 96.2914 257.907 96.4312C257.896 96.5711 257.85 96.7059 257.774 96.8236C257.697 96.9413 257.593 97.038 257.47 97.1052C257.346 97.1723 257.208 97.2077 257.068 97.2081H244.457C244.291 97.2088 244.128 97.1606 243.99 97.0694C243.851 96.9782 243.742 96.8482 243.677 96.6955L234.686 75.3382C234.629 75.2057 234.54 75.09 234.426 75.0019C234.312 74.9138 234.178 74.8563 234.035 74.8349C233.893 74.8135 233.747 74.8289 233.613 74.8796C233.478 74.9303 233.358 75.0146 233.265 75.1246L215.005 96.9091C214.926 97.0029 214.828 97.0783 214.718 97.1299C214.607 97.1816 214.486 97.2083 214.364 97.2081H203.536C203.375 97.2074 203.218 97.161 203.083 97.0742C202.948 96.9873 202.841 96.8638 202.773 96.718C202.706 96.5723 202.682 96.4103 202.703 96.2512C202.725 96.0921 202.792 95.9425 202.895 95.8199L229.485 64.7662C229.599 64.6388 229.672 64.4802 229.695 64.3107C229.718 64.1413 229.689 63.9689 229.613 63.8158Z" fill="white"/>
<path d="M13.9143 22.2649H26.2803L14.7046 76.7262H46.9862L44.6476 87.7145H0L13.9143 22.2649Z" fill="black"/>
<path d="M55.8388 64.6593C56.5557 61.3046 57.8492 58.0997 59.6618 55.1873C61.4724 52.2485 63.7398 49.6169 66.3787 47.3918C69.0396 45.1317 72.0561 43.3276 75.3061 42.0525C78.643 40.7431 82.1973 40.0765 85.7819 40.0876C89.0913 40.0253 92.3734 40.6963 95.3927 42.0525C98.0206 43.2598 100.312 45.0931 102.067 47.3918C103.789 49.6911 104.952 52.3602 105.463 55.1873C106.037 58.3254 105.971 61.5471 105.271 64.6593C104.552 68.0151 103.255 71.2203 101.437 74.1313C99.6224 77.083 97.3559 79.7314 94.72 81.9801C92.0609 84.2538 89.0349 86.0592 85.7712 87.3195C82.4364 88.6358 78.8806 89.3028 75.2954 89.2844C71.9853 89.3553 68.7013 88.6839 65.6846 87.3195C63.0483 86.1259 60.7535 84.2901 59.0104 81.9801C57.3008 79.6548 56.1432 76.9706 55.6253 74.1313C55.0525 70.9922 55.1251 67.7694 55.8388 64.6593ZM77.4632 79.2891C79.5606 79.3143 81.6357 78.8577 83.5287 77.9543C85.3304 77.0931 86.962 75.9138 88.3448 74.473C90.9758 71.7518 92.8017 68.355 93.6201 64.6593C93.9738 63.0003 94.071 61.2968 93.9084 59.6083C93.7821 57.9569 93.3052 56.3514 92.5095 54.899C91.7154 53.48 90.5629 52.2944 89.167 51.4604C87.4879 50.5186 85.5806 50.0602 83.6569 50.1363C81.5569 50.1076 79.4783 50.5606 77.5807 51.4604C75.7913 52.3188 74.1652 53.4824 72.7753 54.899C71.4099 56.2889 70.2615 57.8764 69.3688 59.6083C68.5322 61.2039 67.9075 62.9019 67.5106 64.6593C67.1555 66.3361 67.0547 68.0569 67.2116 69.7637C67.3558 71.4131 67.8355 73.0157 68.6212 74.473C69.3908 75.9175 70.5436 77.1221 71.953 77.9543C73.63 78.9025 75.5381 79.3647 77.4632 79.2891Z" fill="black"/>
<path d="M115.5 95.1792C117.077 96.4347 118.894 97.3541 120.84 97.8809C123.234 98.4821 125.697 98.7622 128.165 98.7138C131.112 98.7533 133.988 97.806 136.334 96.0228C138.782 94.1345 140.444 91.4071 141.001 88.3662L142.069 83.3579C140.255 84.6471 138.299 85.7222 136.238 86.5615C133.78 87.4523 131.174 87.8689 128.56 87.7895C125.624 87.8741 122.706 87.305 120.017 86.1236C117.762 85.0887 115.817 83.4795 114.379 81.457C112.929 79.3521 112.012 76.9259 111.709 74.3877C111.353 71.3918 111.52 68.3568 112.201 65.4176C112.921 62.0155 114.225 58.7639 116.056 55.8068C117.886 52.8166 120.212 50.1589 122.933 47.9473C128.736 43.26 135.986 40.7314 143.446 40.7926C147.08 40.7565 150.707 41.0856 154.275 41.775C156.908 42.2631 159.499 42.9521 162.027 43.836L152.523 88.5798C151.907 91.6217 150.722 94.5201 149.031 97.1227C147.445 99.5586 145.43 101.686 143.083 103.402C140.725 105.123 138.093 106.433 135.299 107.278C132.374 108.17 129.332 108.617 126.275 108.602C124.134 108.625 121.994 108.511 119.868 108.261C118.245 108.074 116.638 107.763 115.062 107.332C113.777 106.978 112.534 106.484 111.357 105.858C110.294 105.289 109.301 104.597 108.399 103.797L115.5 95.1792ZM148.775 51.7062C147.909 51.3695 147.011 51.1226 146.095 50.9694C144.583 50.7731 143.059 50.691 141.535 50.7238C139.344 50.7008 137.168 51.0996 135.128 51.8984C133.243 52.6582 131.494 53.7185 129.949 55.038C128.438 56.3325 127.162 57.8788 126.179 59.6084C125.186 61.3007 124.465 63.1385 124.043 65.0546C123.296 68.5892 123.541 71.5686 124.801 73.9819C126.062 76.3953 128.635 77.6127 132.565 77.6127C135.557 77.7643 138.522 76.9765 141.044 75.3595C143.315 73.5992 144.825 71.0345 145.262 68.1941L148.775 51.7062Z" fill="black"/>
</svg>
