<svg width="630" height="615" viewBox="0 0 630 615" fill="none" xmlns="http://www.w3.org/2000/svg">
<path d="M629.079 12.6795L503.014 605.858C502.509 608.214 501.212 610.325 499.34 611.841C497.468 613.357 495.133 614.186 492.724 614.19H10.5188C8.95204 614.19 7.40504 613.84 5.99081 613.166C4.57659 612.492 3.33087 611.51 2.3447 610.293C1.35854 609.075 0.65686 607.653 0.290905 606.13C-0.0750504 604.606 -0.0959915 603.02 0.229563 601.488L104.51 110.837C104.833 109.328 104.819 107.766 104.468 106.263C104.118 104.76 103.441 103.352 102.484 102.141L35.4907 17.0273C34.2681 15.4763 33.507 13.6124 33.2944 11.649C33.0818 9.68558 33.4263 7.702 34.2886 5.92527C35.1508 4.14854 36.4959 2.65048 38.1699 1.60259C39.8439 0.554707 41.779 -0.000712027 43.7539 6.8505e-07H618.79C620.353 0.00458195 621.896 0.356757 623.306 1.031C624.716 1.70524 625.958 2.68467 626.943 3.89836C627.928 5.11204 628.631 6.52959 629 8.04833C629.37 9.56707 629.397 11.149 629.079 12.6795Z" fill="#EEB11A"/>
<path d="M357.576 294.131L468.527 164.378C469.018 163.802 469.334 163.099 469.438 162.35C469.542 161.6 469.429 160.837 469.113 160.15C468.797 159.463 468.291 158.881 467.655 158.472C467.018 158.063 466.278 157.846 465.522 157.844H414.667C414.085 157.846 413.51 157.975 412.983 158.223C412.456 158.471 411.99 158.831 411.617 159.278L377.471 200.595L336.292 250.379C335.858 250.902 335.297 251.304 334.663 251.547C334.029 251.791 333.343 251.867 332.671 251.769C331.999 251.67 331.363 251.401 330.825 250.986C330.287 250.571 329.865 250.025 329.599 249.4L291.698 160.257C291.394 159.542 290.887 158.932 290.239 158.503C289.592 158.074 288.832 157.845 288.055 157.844H228.869C228.208 157.842 227.557 158.005 226.976 158.321C226.395 158.636 225.902 159.092 225.544 159.648C225.186 160.204 224.973 160.841 224.926 161.5C224.878 162.159 224.998 162.82 225.273 163.421L286.416 299.64C286.721 300.325 286.824 301.082 286.716 301.823C286.607 302.565 286.29 303.26 285.802 303.828L160.783 449.744C160.292 450.319 159.976 451.023 159.872 451.772C159.768 452.521 159.88 453.285 160.196 453.972C160.512 454.659 161.019 455.241 161.655 455.65C162.291 456.058 163.031 456.276 163.788 456.278H214.642C215.221 456.276 215.793 456.146 216.316 455.899C216.839 455.651 217.301 455.29 217.67 454.843L303.444 352.406C303.879 351.884 304.442 351.483 305.077 351.242C305.712 351 306.399 350.926 307.071 351.026C307.744 351.127 308.379 351.399 308.915 351.816C309.452 352.233 309.873 352.781 310.136 353.408L333.355 408.474L352.477 454.001C352.774 454.722 353.28 455.339 353.928 455.772C354.576 456.206 355.339 456.437 356.119 456.437H415.305C415.966 456.44 416.617 456.276 417.198 455.961C417.78 455.645 418.272 455.189 418.63 454.633C418.989 454.078 419.201 453.441 419.249 452.781C419.296 452.122 419.177 451.461 418.902 450.86L354.821 307.015L353.046 303.009C352.739 302.326 352.631 301.57 352.736 300.829C352.841 300.088 353.153 299.391 353.638 298.82L357.576 294.131Z" fill="white"/>
</svg>
